<?xml version="1.0" encoding="UTF-8"?>
<svg width="20pt" height="20pt" version="1.1" viewBox="0 0 128 128" xmlns="http://www.w3.org/2000/svg">
 <path d="m113.68 90.559c0.15234-0.71875 0.035156-1.4688-0.32813-2.1094l-3.7852-6.6133c-0.36328-0.64063-0.94922-1.1211-1.6484-1.3555-1.7812-0.625-3.6836-0.80078-5.5508-0.52344l-0.51953-0.30469c-0.67578-1.7578-1.7695-3.3281-3.1875-4.5742-0.54688-0.48828-1.2539-0.76172-1.9883-0.76562l-7.6211-0.03125h-0.015625c-0.73047 0-1.4375 0.26562-1.9844 0.75-1.4297 1.2305-2.5352 2.793-3.2227 4.5469l-0.52344 0.29688v0.003906c-1.8633-0.29688-3.7695-0.13281-5.5586 0.46875-0.69922 0.23047-1.2891 0.70703-1.6602 1.3438l-3.8398 6.5859v-0.003906c-0.36719 0.63672-0.49219 1.3867-0.34766 2.1055 0.35156 1.8555 1.1523 3.5938 2.3281 5.0703l-0.003906 0.60156c-1.1875 1.4648-2 3.1953-2.3672 5.0469-0.15234 0.71875-0.035157 1.4688 0.32812 2.1055l3.7852 6.6172c0.36328 0.63672 0.94922 1.1211 1.6484 1.3555 1.7812 0.62109 3.6836 0.80078 5.5469 0.51953l0.52344 0.30469c0.67578 1.7578 1.7695 3.3281 3.1836 4.5703 0.54688 0.49219 1.2578 0.76953 1.9922 0.77344l7.6211 0.03125 0.015625-0.003906c0.73047 0 1.4375-0.26562 1.9844-0.75 1.4297-1.2305 2.5352-2.7891 3.2266-4.543l0.52734-0.30078h-0.003906c1.8633 0.29297 3.7656 0.13281 5.5508-0.46875 0.69922-0.23047 1.293-0.70703 1.6641-1.3438l3.8398-6.5859v0.003906c0.37109-0.63672 0.49219-1.3867 0.34766-2.1094-0.35547-1.8516-1.1523-3.5898-2.3242-5.0625l0.003906-0.60547h-0.003906c1.1875-1.4648 2-3.1953 2.3672-5.0469zm-6.6914 9.8516c0.1875 0.33594 0.34375 0.6875 0.47266 1.0508l-2.5547 4.3789c-0.375 0.074218-0.75781 0.10938-1.1406 0.10547-0.94922-0.65625-2.1914-0.70703-3.1914-0.13281l-3.1641 1.8086c-1 0.57422-1.582 1.668-1.5039 2.8164-0.19531 0.32812-0.41797 0.63672-0.66797 0.92969l-5.0703-0.019532h-0.003907c-0.24609-0.29297-0.46484-0.60547-0.66016-0.9375 0.09375-1.1484-0.48438-2.25-1.4805-2.8281l-3.1484-1.8359c-0.99609-0.58203-2.2344-0.53906-3.1875 0.10547-0.38672-0.003906-0.76562-0.042968-1.1445-0.11719l-2.5156-4.3984c0.12891-0.36328 0.28906-0.71094 0.48047-1.0469 1.0391-0.49219 1.7031-1.543 1.707-2.6914l0.015625-3.6445c0.007812-1.1523-0.64844-2.207-1.6875-2.7109-0.18359-0.33594-0.33984-0.68359-0.46875-1.0469l2.5547-4.3789c0.37891-0.058594 0.75781-0.097656 1.1406-0.10938 0.94922 0.65625 2.1875 0.70703 3.1914 0.13672l3.1641-1.8086c1-0.57422 1.5859-1.668 1.5039-2.8203 0.19531-0.32812 0.41797-0.63672 0.66797-0.92578l5.0703 0.019532h0.003906c0.24609 0.29297 0.46484 0.60547 0.66016 0.93359-0.089844 1.1523 0.48438 2.25 1.4805 2.832l3.1484 1.8359c0.99609 0.57812 2.2344 0.53906 3.1914-0.10547 0.37891 0.011718 0.76172 0.046874 1.1367 0.11328l2.5195 4.4023c-0.12891 0.35938-0.28906 0.70703-0.47656 1.0391-1.043 0.49609-1.707 1.543-1.7109 2.6953l-0.015624 3.6445c-0.007813 1.1523 0.64844 2.207 1.6836 2.7148zm-10.305-11.305h0.003906c-1.7852-1.0391-3.9062-1.3281-5.9023-0.80078-1.9922 0.52344-3.6992 1.8203-4.7383 3.6016-1.5859 2.7188-1.375 6.1211 0.52734 8.6289 1.9062 2.5039 5.1289 3.6133 8.1719 2.8125 3.043-0.80078 5.3047-3.3555 5.7266-6.4727 0.42578-3.1172-1.0703-6.1836-3.7852-7.7695zm-2.3828 7.6133 0.003907 0.003906c-0.23828 0.40625-0.62891 0.70312-1.082 0.82422-0.45703 0.125-0.94531 0.058594-1.3516-0.18359-0.62109-0.36328-0.96094-1.0625-0.86719-1.7773 0.097656-0.71094 0.61328-1.2969 1.3086-1.4805 0.45703-0.12109 0.94531-0.054688 1.3516 0.18359 0.40625 0.23828 0.70313 0.62891 0.82422 1.0859 0.12109 0.45312 0.054688 0.94141-0.18359 1.3477zm-39.289-36.906c6.5195 0 12.777-2.5938 17.387-7.2031 4.6133-4.6133 7.2031-10.867 7.207-17.391 0-6.5234-2.5938-12.777-7.2031-17.387-4.6133-4.6133-10.867-7.2031-17.391-7.2031-6.5234-0.003906-12.777 2.5898-17.391 7.1992-4.6094 4.6133-7.1992 10.867-7.1992 17.391 0.003906 6.5195 2.5977 12.77 7.207 17.379 4.6133 4.6133 10.863 7.207 17.383 7.2148zm0-43.184c4.9297-0.003906 9.6602 1.957 13.145 5.4414 3.4883 3.4883 5.4453 8.2188 5.4492 13.148 0 4.9297-1.9609 9.6602-5.4453 13.145-3.4883 3.4883-8.2188 5.4453-13.148 5.4492-4.9297 0-9.6602-1.9609-13.145-5.4453-3.4883-3.4883-5.4453-8.2188-5.4453-13.148 0.003906-4.9297 1.9648-9.6562 5.4492-13.141s8.2109-5.4453 13.141-5.4492zm20.051 58.492c-6.0977-3.3867-13.031-4.9727-19.992-4.5781-10.832-0.23047-19.305 2.668-25.238 8.5469-9.6016 9.5117-9.5781 23.945-9.5781 24.094v0.003906c0.015625 1.6523-1.3086 3.0078-2.9648 3.0273h-0.035156c-1.6406 0.003906-2.9805-1.3164-3-2.957-0.007812-0.6875-0.09375-17.047 11.309-28.387 7.1289-7.0938 17.043-10.605 29.504-10.328 8.0508-0.41016 16.051 1.4727 23.074 5.4297 0.70703 0.39453 1.2188 1.0625 1.4297 1.8438 0.20703 0.78125 0.089844 1.6133-0.32812 2.3086-0.41406 0.69531-1.0898 1.1914-1.8789 1.3789-0.78516 0.1875-1.6172 0.046875-2.3008-0.38281z" fill="#00a69c"/>
</svg>
