<svg width="20" height="20" viewBox="0 0 20 20" fill="none" xmlns="http://www.w3.org/2000/svg">
<path d="M13.9499 8.78333C13.9833 8.53333 13.9999 8.275 13.9999 8C13.9999 7.73333 13.9833 7.46667 13.9416 7.21667L15.6333 5.9C15.7833 5.78333 15.8249 5.55833 15.7333 5.39167L14.1333 2.625C14.0333 2.44167 13.8249 2.38333 13.6416 2.44167L11.6499 3.24167C11.2333 2.925 10.7916 2.65833 10.2999 2.45833L9.99993 0.341667C9.96659 0.141667 9.79993 0 9.59993 0H6.39993C6.19993 0 6.04159 0.141667 6.00826 0.341667L5.70826 2.45833C5.2166 2.65833 4.7666 2.93333 4.35826 3.24167L2.3666 2.44167C2.18326 2.375 1.97493 2.44167 1.87493 2.625L0.283262 5.39167C0.183262 5.56667 0.216595 5.78333 0.383262 5.9L2.07493 7.21667C2.03326 7.46667 1.99993 7.74167 1.99993 8C1.99993 8.25833 2.0166 8.53333 2.05826 8.78333L0.366595 10.1C0.216595 10.2167 0.174929 10.4417 0.266595 10.6083L1.8666 13.375C1.9666 13.5583 2.17493 13.6167 2.35826 13.5583L4.34993 12.7583C4.76659 13.075 5.20826 13.3417 5.69993 13.5417L5.99993 15.6583C6.0416 15.8583 6.19993 16 6.39993 16H9.59993C9.79993 16 9.9666 15.8583 9.9916 15.6583L10.2916 13.5417C10.7833 13.3417 11.2333 13.075 11.6416 12.7583L13.6333 13.5583C13.8166 13.625 14.0249 13.5583 14.1249 13.375L15.7249 10.6083C15.8249 10.425 15.7833 10.2167 15.6249 10.1L13.9499 8.78333ZM7.99993 11C6.34993 11 4.99993 9.65 4.99993 8C4.99993 6.35 6.34993 5 7.99993 5C9.64993 5 10.9999 6.35 10.9999 8C10.9999 9.65 9.64993 11 7.99993 11Z"/>
</svg>
