<?xml version="1.0" encoding="utf-8"?>
<!-- Generator: Adobe Illustrator 26.3.1, SVG Export Plug-In . SVG Version: 6.00 Build 0)  -->
<svg version="1.1" id="Layer_1" xmlns="http://www.w3.org/2000/svg" xmlns:xlink="http://www.w3.org/1999/xlink" x="0px" y="0px"
	 viewBox="0 0 1080 1080" style="enable-background:new 0 0 1080 1080;" xml:space="preserve">
<style type="text/css">
	.st0{fill:#00A79D;}
</style>
<path class="st0" d="M820.5,255.7c42.2,0,79.1,6.1,106.7,17.6c24.3,10.1,41.2,24.1,50.3,41.7c9.8,19,10.8,43,3.1,71.4
	c-8.8,32.3-28.9,69.2-58.1,106.7c-23.4,30.1-52,59.9-85.3,89.1c-0.8,22.2-2.1,44.2-4.1,65.8c154.4-122.2,234.3-263,187-354.9
	c-29.4-57.2-102.8-85.3-199.7-85.3c-10.5,0-21.3,0.3-32.3,1c5.1,15.3,9.9,31.1,14.3,47.4C808.6,255.8,814.6,255.7,820.5,255.7z"/>
<path class="st0" d="M366.6,294.9c9.3-37,20.6-71.2,33.8-102.1c2.5,0.3,5,0.4,7.6,0.4c38.1,0,69-30.9,69-69c0-13.8-4.1-26.6-11-37.4
	c3-3.2,6.1-6.2,9.2-9C496.8,58.1,518.6,48,540,48s43.2,10.1,64.9,29.9c24.7,22.6,48.3,57.3,68.3,100.5
	c21.3,46.1,38.2,100.2,50,160.7c12.4,63.5,18.8,131.2,18.8,201s-6.3,137.4-18.8,201c-1.6,8.3-3.4,16.5-5.2,24.6
	c16.3,3.1,32.2,5.6,47.5,7.3C781.2,702.4,790,623.4,790,540C790,241.8,678.1,0,540,0c-40.6,0-78.9,20.9-112.8,58
	c-6.1-1.8-12.6-2.7-19.3-2.7c-38.1,0-69,30.9-69,69c0,18.2,7,34.7,18.5,47c-19.8,45.8-36,98.9-47.5,157.5
	C328.2,317,347.1,305.8,366.6,294.9z"/>
<path class="st0" d="M1018.1,654.5c-9.7-24.5-23.8-50-41.9-75.7c-10.5,12.1-21.7,24.1-33.6,36c11.9,17.9,21.5,35.4,28.6,52
	c-17.7,12.5-29.2,33.1-29.2,56.3c0,22.3,10.6,42.1,27,54.7c-9.7,11.7-23.7,21.4-41.7,28.9c-27.6,11.5-64.5,17.6-106.7,17.6
	c-107.7,0-243.6-38.1-372.9-104.7c-62.1-31.9-119.3-68.5-170.1-108.6c-15.7-12.4-30.6-25-44.6-37.7c-11.5,11.9-22.1,23.9-31.9,35.9
	c60.9,55.2,137.3,108.1,224.6,153.1c141.7,72.9,283.7,110,394.9,110c94,0,166-26.6,197-80.5c35-3.3,62.4-32.8,62.4-68.7
	C1080,687.4,1052.9,658.1,1018.1,654.5z"/>
<path class="st0" d="M604.9,1002.1c-21.7,19.8-43.5,29.9-64.9,29.9s-43.2-10.1-64.9-29.9c-24.4-22.3-47.7-56.4-67.5-98.8
	c-16.5,3.5-32.7,6.6-48.6,9C404.5,1015.6,468.7,1080,540,1080c71.3,0,135.5-64.4,181.1-167.7c-15.9-2.4-32.1-5.4-48.6-9
	C652.6,945.7,629.3,979.9,604.9,1002.1z"/>
<path class="st0" d="M540,411c-71.1,0-129,57.9-129,129s57.9,129,129,129s129-57.9,129-129S611.1,411,540,411z M540,621
	c-44.7,0-81-36.3-81-81c0-44.7,36.3-81,81-81s81,36.3,81,81C621,584.7,584.7,621,540,621z"/>
<path class="st0" d="M404.7,805.5c-34.3,8.2-67.6,13.8-99.2,16.6c-9.8-26.2-35-44.8-64.6-44.8c-27,0-50.3,15.5-61.6,38
	c-9.5-2.4-18.4-5.3-26.5-8.6c-24.3-10.1-41.2-24.1-50.3-41.7c-9.8-19-10.8-43-3.1-71.4c8.8-32.3,28.9-69.2,58.1-106.7
	c31.2-40.1,71.6-79.8,120-118c50.8-40.1,108.1-76.7,170.1-108.6c70.5-36.2,142.9-64,211.6-81.9c-4.7-15.9-9.7-31.2-15.2-45.7
	c-69.9,18.3-144.2,46.7-218.4,84.8C160.4,454.1-3.4,664.2,59.8,787c20,38.8,60.2,64.2,114.3,76.6c7.6,29.8,34.7,51.8,66.8,51.8
	c29.7,0,55-18.7,64.7-45c51.1-4.3,107.1-15.3,165.6-33.1C449,827.4,426.8,816.8,404.7,805.5z"/>
<path class="st0" d="M137.3,465.2c-18.4-27.7-31.4-54.6-38-78.8c-7.7-28.4-6.7-52.4,3.1-71.4c9-17.6,26-31.6,50.3-41.7
	c27.6-11.5,64.5-17.6,106.7-17.6h0c5.9,0,11.9,0.1,18,0.4c4.4-16.2,9.1-32,14.3-47.4c-11-0.7-21.8-1-32.3-1
	c-96.8,0-170.3,28.2-199.7,85.3c-28.9,56.2-10.2,130.8,44,208.2C114.3,489.1,125.5,477.1,137.3,465.2z"/>
</svg>
