<?xml version="1.0" encoding="UTF-8"?>
<svg width="128pt" height="128pt" version="1.1" viewBox="0 0 128 128" xmlns="http://www.w3.org/2000/svg">
 <g fill="#00a69c">
  <path d="m64 113.68c-16.785 0-30.441-13.645-30.441-30.418v-15.234c0-8.1445 3.1875-15.805 8.9766-21.566 0.83203-0.83203 2.1836-0.82812 3.0156 0.007812 0.83203 0.83203 0.82812 2.1836-0.007812 3.0156-4.9766 4.957-7.7188 11.539-7.7188 18.543l0.003906 15.234c0 14.418 11.742 26.148 26.172 26.148 14.418 0 26.148-11.73 26.148-26.148v-15.234c0-6.9727-2.7188-13.543-7.6523-18.504-0.82812-0.83203-0.86328-2.2188-0.03125-3.0508 0.83203-0.83203 2.1484-0.87109 2.9805-0.035156 5.8164 5.8398 8.9727 13.48 8.9727 21.586l-0.003907 15.238c0 16.773-13.645 30.418-30.414 30.418z"/>
  <path d="m75.879 55.27h-23.773c-6.6172 0-12-5.3828-12-12v-2.7773c0-6.6172 5.3828-12 12-12h23.77c6.6172 0 12 5.3828 12 12v2.7773c0.003906 6.6172-5.3828 12-11.996 12zm-23.773-22.512c-4.2656 0-7.7344 3.4688-7.7344 7.7344v2.7773c0 4.2656 3.4688 7.7344 7.7344 7.7344h23.77c4.2656 0 7.7344-3.4688 7.7344-7.7344v-2.7773c0-4.2656-3.4688-7.7344-7.7344-7.7344z"/>
  <path d="m51.688 32.902c-0.89453 0-1.7266-0.56641-2.0234-1.457-0.49219-1.4766-0.74219-3.0273-0.74219-4.6172 0-10.215 10.184-10.215 15.082-10.215 4.8867 0 15.059 0 15.059 10.215 0 1.5781-0.25 3.1328-0.74219 4.6133-0.37109 1.1172-1.582 1.7148-2.6992 1.3516-1.1172-0.37109-1.7227-1.5781-1.3516-2.6992 0.34766-1.0469 0.52344-2.1484 0.52344-3.2695 0-4.5039-2.6211-5.9492-10.793-5.9492-8.1875 0-10.816 1.4453-10.816 5.9492 0 1.1289 0.17578 2.2266 0.52344 3.2656 0.37109 1.1172-0.23047 2.3242-1.3477 2.6992-0.22266 0.078126-0.44922 0.11328-0.67188 0.11328z"/>
  <path d="m74.676 23.227c-0.54688 0-1.0898-0.20703-1.5078-0.625-0.83203-0.83203-0.83203-2.1836 0-3.0156l8.293-8.293c0.83203-0.83203 2.1836-0.83203 3.0156 0 0.83203 0.83203 0.83203 2.1836 0 3.0156l-8.293 8.293c-0.41797 0.41797-0.96094 0.625-1.5078 0.625z"/>
  <path d="m53.324 23.227c-0.54688 0-1.0898-0.20703-1.5078-0.625l-8.293-8.293c-0.83203-0.83203-0.83203-2.1836 0-3.0156 0.83203-0.83203 2.1836-0.83203 3.0156 0l8.293 8.293c0.83203 0.83203 0.83203 2.1836 0 3.0156-0.41406 0.41797-0.96094 0.625-1.5078 0.625z"/>
  <path d="m89.742 58.473c-0.96484 0-1.8359-0.66016-2.0742-1.6367-0.27344-1.1445 0.43359-2.2969 1.5781-2.5703l11.996-2.8711 2.207-13.805c0.18359-1.1641 1.2734-1.9609 2.4453-1.7695 1.1641 0.18359 1.9531 1.2773 1.7695 2.4453l-2.4336 15.211c-0.13672 0.85156-0.76953 1.5352-1.6094 1.7383l-13.383 3.2031c-0.16406 0.035156-0.33203 0.054687-0.49609 0.054687z"/>
  <path d="m104.84 117.33c-1.0312 0-1.9375-0.74609-2.1055-1.7969l-2.207-13.805-11.996-2.8711c-1.1445-0.27344-1.8516-1.4258-1.5781-2.5703 0.27344-1.1445 1.4297-1.8477 2.5703-1.5781l13.383 3.2031c0.83984 0.19922 1.4766 0.88672 1.6094 1.7383l2.4336 15.211c0.18359 1.1641-0.60547 2.2578-1.7695 2.4453-0.11328 0.015625-0.23047 0.023437-0.33984 0.023437z"/>
  <path d="m105.56 89.344c-0.86719 0-1.6836-0.53516-2.0039-1.3984l-2.9141-7.9414-8.6836-1.332c-1.1641-0.17578-1.9648-1.2656-1.7852-2.4297 0.17578-1.1641 1.2461-1.9648 2.4297-1.7852l9.9297 1.5195c0.76953 0.11719 1.4141 0.64453 1.6797 1.375l3.3477 9.1289c0.40625 1.1055-0.16406 2.332-1.2695 2.7344-0.23828 0.085937-0.48828 0.12891-0.73047 0.12891z"/>
  <path d="m38.262 58.473c-0.16406 0-0.33203-0.019531-0.49609-0.058594l-13.383-3.2031c-0.83984-0.19922-1.4766-0.88672-1.6094-1.7383l-2.4336-15.211c-0.18359-1.1641 0.60547-2.2578 1.7695-2.4453 1.1641-0.19531 2.2578 0.60547 2.4453 1.7695l2.207 13.805 11.996 2.8711c1.1445 0.27344 1.8555 1.4258 1.5781 2.5703-0.23828 0.98438-1.1094 1.6406-2.0742 1.6406z"/>
  <path d="m23.164 117.33c-0.11328 0-0.22656-0.007812-0.33984-0.027343-1.1641-0.18359-1.9531-1.2773-1.7695-2.4453l2.4336-15.211c0.13672-0.85156 0.76953-1.5391 1.6094-1.7383l13.383-3.2031c1.1484-0.26562 2.2969 0.43359 2.5703 1.5781 0.27344 1.1445-0.43359 2.2969-1.5781 2.5703l-11.996 2.8711-2.207 13.805c-0.16797 1.0547-1.0781 1.8008-2.1055 1.8008z"/>
  <path d="m22.441 89.344c-0.24219 0-0.49219-0.042969-0.73438-0.13281-1.1055-0.40234-1.6719-1.6328-1.2656-2.7383l3.3477-9.1289c0.26563-0.73047 0.91016-1.2578 1.6797-1.3711l9.9297-1.5195c1.1641-0.18359 2.2539 0.62109 2.4297 1.7852 0.17969 1.1641-0.62109 2.2539-1.7852 2.4297l-8.6836 1.332-2.9141 7.9453c-0.31641 0.86328-1.1367 1.3984-2.0039 1.3984z"/>
  <path d="m81.504 107.61c-0.55859 0-1.1211-0.22266-1.5391-0.65625l-17.512-18.27c-0.38281-0.39844-0.59375-0.92578-0.59375-1.4766v-34.074c0-1.1797 0.95312-2.1328 2.1328-2.1328 1.1797 0 2.1328 0.95312 2.1328 2.1328v33.219l16.918 17.648c0.81641 0.85156 0.78906 2.2031-0.0625 3.0156-0.41406 0.39453-0.94531 0.59375-1.4766 0.59375z"/>
  <path d="m46.48 107.61c-0.53125 0-1.0625-0.19922-1.4766-0.59375-0.85156-0.81641-0.87891-2.1641-0.0625-3.0156l17.512-18.27c0.81641-0.84766 2.1641-0.87891 3.0156-0.0625s0.87891 2.1641 0.0625 3.0156l-17.512 18.27c-0.41797 0.43359-0.98047 0.65625-1.5391 0.65625z"/>
 </g>
</svg>
