<?xml version="1.0" encoding="UTF-8"?>
<svg width="128pt" height="128pt" version="1.1" viewBox="0 0 128 128" xmlns="http://www.w3.org/2000/svg">
 <path d="m88.012 0c-10.246 0-20.496 3.9023-28.297 11.703l-56.605 56.605c-4.1484 4.1484-4.1484 10.941 0 15.09l41.496 41.492c4.1484 4.1484 10.941 4.1484 15.09 0l56.602-56.605c15.602-15.602 15.602-40.98 0-56.582-7.8008-7.8008-18.043-11.703-28.285-11.703zm0 5.2969c8.8672 0 17.734 3.3945 24.516 10.176 13.562 13.562 13.562 35.477 0 49.043l-56.605 56.605c-2.1211 2.1211-5.418 2.1211-7.543 0l-41.5-41.5c-2.1211-2.1211-2.1211-5.418 0-7.543l56.605-56.605c6.7812-6.7812 15.656-10.176 24.527-10.176zm-0.011719 21.371c-7.3633 0-13.332 5.9688-13.332 13.332s5.9688 13.332 13.332 13.332 13.332-5.9688 13.332-13.332-5.9688-13.332-13.332-13.332zm0.13672 5.332c4.4922 0 8.1289 3.582 8.1289 8s-3.6406 8-8.1289 8c-4.4922 0-8.1367-3.582-8.1367-8s3.6445-8 8.1367-8zm-32.141 16c-0.68359 0-1.3633 0.26562-1.8867 0.78516l-26.656 26.656c-1.043 1.043-1.043 2.7266 0 3.7695 1.043 1.043 2.7266 1.043 3.7695 0l26.656-26.656c1.043-1.043 1.043-2.7266 0-3.7695-0.51953-0.51953-1.2031-0.78516-1.8828-0.78516zm10.668 10.668c-0.68359 0-1.3633 0.26562-1.8867 0.78516l-26.656 26.656c-1.043 1.043-1.043 2.7266 0 3.7695 1.043 1.043 2.7266 1.043 3.7695 0l26.656-26.656c1.043-1.043 1.043-2.7266 0-3.7695-0.52344-0.52344-1.2031-0.78516-1.8867-0.78516zm10.668 10.668c-0.68359 0-1.3633 0.26562-1.8867 0.78516l-26.656 26.656c-1.043 1.043-1.043 2.7266 0 3.7695 1.043 1.043 2.7266 1.043 3.7695 0l26.656-26.656c1.043-1.043 1.043-2.7266 0-3.7695-0.52344-0.52344-1.2031-0.78906-1.8867-0.78906z" fill="#00a69c" fill-rule="evenodd"/>
</svg>
