<?xml version="1.0" encoding="UTF-8"?>
<svg width="512pt" height="512pt" version="1.1" viewBox="0 0 512 512" xmlns="http://www.w3.org/2000/svg">
 <path d="m478 325.28c-7.1992 0-13.281 4.2383-16.238 10.238h-36.801v-51.199c42.32-0.078124 74.48-34.398 74.48-76.719 0-42.48-34.398-76.879-76.801-76.879 0-42.398-34.48-76.801-76.879-76.801-9.7617 0-19.199 1.9219-27.762 5.2812-15.039-34.805-49.68-59.203-90.078-59.203-41.441 0-76.801 25.68-91.199 61.84-6.2383-2.0781-12.879-3.1211-19.922-3.1211-36.16 0-65.359 29.281-65.359 65.359 0 5.3594 0.64062 10.559 2 15.602-24.398 12.801-40.961 38.398-40.961 67.84 0 42.32 34.398 76.641 76.719 76.719h-2.2383v51.199h-36.801c-2.9609-6.0781-9.0391-10.238-16.238-10.238-9.9219 0-18.078 8.1602-18.078 18.16 0 9.9219 8.1602 18.078 18.078 18.078 7.1992 0 13.281-4.2383 16.238-10.16h44.641c4.4805 0 7.9219-3.6016 7.9219-7.9219v-59.121h34.879v64l-29.762 57.199c-0.16016 0-0.39844-0.078125-0.55859-0.078125-9.9219 0-18.078 8.2383-18.078 18.16s8.1602 18.078 18.078 18.078c10 0 18.16-8.1602 18.16-18.078 0-4.0781-1.4414-7.7617-3.6797-10.719l30.719-58.961c0.55859-1.1211 0.87891-2.3203 0.87891-3.6016v-66h38.16v122.96l-30.16 32.961c-1.6797-0.55859-3.4414-0.87891-5.2812-0.87891-9.9219 0-18.16 8.1602-18.16 18.078 0 10 8.2383 18.16 18.16 18.16s18.078-8.1602 18.078-18.16c0-2.3203-0.48047-4.5586-1.2812-6.6406l32.32-35.281c1.3594-1.3594 2-3.2812 2-5.3594l0.003907-125.75h40.961v193.28c-6.0781 2.9609-10.238 9.0391-10.238 16.238 0 9.9219 8.1602 18.16 18.16 18.16 9.9219 0 18.078-8.2383 18.078-18.16 0-7.1992-4.2383-13.281-10.16-16.238v-193.28h40.879v125.92c0 2.0781 0.71875 4 2.0781 5.3594l32.32 35.281c-0.87891 2.0781-1.3594 4.3203-1.3594 6.6406 0 10 8.1602 18.16 18.16 18.16 9.9219 0 18.078-8.1602 18.078-18.16 0-9.9219-8.1602-18.078-18.078-18.078-1.8398 0-3.6016 0.32031-5.2812 0.87891l-30.16-32.961 0.003906-123.04h38.16v66c0 1.2812 0.23828 2.4805 0.80078 3.6016l30.719 58.961c-2.2383 3.0391-3.6016 6.7188-3.6016 10.719 0 9.9219 8.1602 18.078 18.078 18.078 10 0 18.16-8.1602 18.16-18.078 0-9.9219-8.1602-18.16-18.16-18.16-0.16016 0-0.32031 0.078125-0.48047 0.078125l-29.84-57.199v-64h34.879v59.121c0 4.3203 3.5195 7.9219 7.9219 7.9219h44.641c2.9609 6 9.0391 10.16 16.238 10.16 10 0 18.16-8.1602 18.16-18.078-0.15625-10.086-8.2383-18.164-18.316-18.164z" fill="#00a69c"/>
</svg>
