<svg width="22" height="25" viewBox="0 0 22 25" fill="none" xmlns="http://www.w3.org/2000/svg">
<path d="M22 24.9091L16.1364 19.7545L16.7273 22H3C0 22 0 19.2727 0 19.2727V18.5455V5.90909V2.72727C0 2.72727 0 0.481818 2.24545 0.0636364L2.27273 0H3H19H19.7273L19.6727 0.0545455C22 0.427273 22 2.72727 22 2.72727V24.9091ZM16.8273 7.59091C16.6 6.50909 13.1727 5.40909 12.8636 5.91818C12.9727 6.22727 14.5727 6.3 16.0727 7.56364C14.6545 6.64545 12.4545 6.38182 11.3818 6.30909L11.0273 6.29091H11.0182L10.6636 6.30909C9.59091 6.38182 7.39091 6.64545 5.97273 7.56364C7.48182 6.29091 9.08182 6.21818 9.18182 5.90909C8.87273 5.4 5.44546 6.5 5.21818 7.58182C5.21818 7.58182 3.42727 11.0636 3.7 14.4C4.76364 15.9091 7 16.3727 7.6 16.2182C8.20909 15.4636 8.29091 15.2455 8.29091 15.2455C8.29091 15.2455 6.6 14.5455 6.18182 13.7727C7.09091 14.2545 7.90909 15.0909 10.6364 15.1818H11.3636C14.0909 15.0909 14.9364 14.2545 15.8364 13.7818C15.4182 14.5545 13.7455 15.2545 13.7455 15.2545C13.7455 15.2545 13.8364 15.4636 14.4455 16.2182C15.0545 16.3727 17.2909 15.9091 18.3455 14.4C18.6182 11.0727 16.8273 7.59091 16.8273 7.59091Z"/>
<path d="M7.44531 11.8182C7.44531 10.9909 7.92713 10.4182 8.7544 10.4182C9.58168 10.4182 9.97258 11.3728 9.97258 11.8182C9.97258 12.1818 9.58168 13.2182 8.7544 13.2182C7.93622 13.2182 7.44531 12.6455 7.44531 11.8182Z"/>
<path d="M14.5273 11.8182C14.5273 10.9909 14.0455 10.4182 13.2182 10.4182C12.3909 10.4182 12 11.3728 12 11.8182C12 12.1818 12.3909 13.2182 13.2182 13.2182C14.0364 13.2182 14.5273 12.6455 14.5273 11.8182Z"/>
</svg>
