<?xml version="1.0" encoding="UTF-8"?>
<svg width="128pt" height="128pt" version="1.1" viewBox="0 0 128 128" xmlns="http://www.w3.org/2000/svg">
 <g fill="#00a69c">
  <path d="m64 108.8c-24.703 0-44.801-20.098-44.801-44.801s20.098-44.801 44.801-44.801 44.801 20.098 44.801 44.801-20.098 44.801-44.801 44.801zm0-81.922c-20.609 0-37.246 16.641-37.246 37.121s16.641 37.246 37.246 37.246c20.609 0 37.246-16.641 37.246-37.246-0.125-20.48-16.766-37.121-37.246-37.121z"/>
  <path d="m62.848 76.414c-2.0469 0-3.8398-1.6641-3.8398-3.8398 0-5.8867 3.8398-11.008 9.3438-12.672 2.4336-0.76953 4.0977-2.9453 3.9688-5.5039 0-4.6094-3.8398-8.4492-8.4492-8.4492s-8.4492 3.8398-8.4492 8.4492c0 2.0469-1.6641 3.8398-3.8398 3.8398-2.0469 0-3.8398-1.6641-3.8398-3.8398 0.25781-8.832 7.4258-16 16.258-16s16 7.168 16 16c0 5.8867-3.8398 11.008-9.3438 12.672-2.4336 0.76953-4.0977 2.9453-3.9688 5.5039 0 2.0508-1.793 3.8398-3.8398 3.8398z"/>
  <path d="m67.457 84.352c0 6.1445-9.2188 6.1445-9.2188 0 0-6.1445 9.2188-6.1445 9.2188 0"/>
 </g>
</svg>
