<?xml version="1.0" encoding="utf-8"?>
<!-- Generator: Adobe Illustrator 26.3.1, SVG Export Plug-In . SVG Version: 6.00 Build 0)  -->
<svg version="1.1" id="Layer_1" xmlns="http://www.w3.org/2000/svg" xmlns:xlink="http://www.w3.org/1999/xlink" x="0px" y="0px"
	 viewBox="0 0 48 48" style="enable-background:new 0 0 48 48;" xml:space="preserve">
<style type="text/css">
	.st0{fill:url(#SVGID_1_);}
	.st1{fill:#1D3599;}
	.st2{fill:#1EB3C6;}
</style>
<linearGradient id="SVGID_1_" gradientUnits="userSpaceOnUse" x1="0.4164" y1="5.8865" x2="43.1753" y2="49.2428">
	<stop  offset="6.820437e-04" style="stop-color:#1EB3C6"/>
	<stop  offset="1" style="stop-color:#1D3599"/>
</linearGradient>
<path class="st0" d="M47.7,25.3c-6.6-6.5-6.1-6.1-6.3-6.2S41.2,19,38,19v-5c0-0.6-0.4-1-1-1h-2.8c0-0.1-0.1-0.3-0.2-0.4l2-1.9
	c0.4-0.4,0.4-1,0-1.4c0,0,0,0,0,0c-5.6-5.6-4.3-5.6-7.6-2.3L28,6.8V4c0-0.6-0.4-1-1-1h-6c-0.6,0-1,0.4-1,1v2.8l-0.4,0.2l-2-1.9
	c-0.4-0.4-1-0.4-1.4,0c0,0,0,0,0,0L12,9.2c-0.4,0.4-0.4,1,0,1.4c0,0,0,0,0,0l1.9,1.9c-0.1,0.1-0.1,0.3-0.2,0.4H11c-0.6,0-1,0.4-1,1
	v5c-3.2,0-3.1,0-3.4,0.1s0.2-0.4-6.3,6.2c-0.4,0.4-0.4,1,0,1.4C0.5,26.9,0.7,27,1,27h5v17c0,0.6,0.4,1,1,1h34c0.6,0,1-0.4,1-1V27h5
	c0.6,0,1-0.4,1-1C48,25.7,47.9,25.5,47.7,25.3z M12,15h2.5c0.4,0,0.8-0.3,0.9-0.7c0.8-2.6,1.6-1.5-1.3-4.4l2.8-2.8l1.7,1.8
	C19,9.1,19.5,9.2,19.8,9C22.3,7.8,22,9,22,5h4v2.5c0,0.5,0.3,0.9,0.7,1c2.6,0.9,1.5,1.6,4.4-1.3l2.8,2.8c-1.6,1.6-2.4,2.1-1.9,2.9
	c1.2,2.4,0,2.2,4,2.2v4h-7.4c1.1-2.5,0-5.5-2.6-6.6s-5.5,0-6.6,2.6c-0.6,1.3-0.6,2.7,0,4H12V15z M21.8,19c-1.1-1.2-1-3.1,0.2-4.2
	c1.2-1.1,3.1-1,4.2,0.2c1.1,1.1,1.1,2.9,0,4.1H21.8z M7.4,21h7.1c0.2,0,0.6-0.5-3.9,4H3.4L7.4,21z M8,27c3.3,0,3.3,0.1,3.7-0.3
	l4.3-4.3V43H8V27z M40,43H18V22.4c4.6,4.6,4.4,4.6,5,4.6h17V43z M23.4,25l-4-4h21.2l4,4H23.4z"/>
<rect x="67" y="1.8" class="st1" width="6.1" height="7.6"/>
<rect x="66.9" y="10.5" class="st2" width="6.1" height="7.6"/>
</svg>
