<?xml version="1.0" encoding="utf-8"?>
<!-- Generator: Adobe Illustrator 26.3.1, SVG Export Plug-In . SVG Version: 6.00 Build 0)  -->
<svg version="1.1" id="Layer_1" xmlns="http://www.w3.org/2000/svg" xmlns:xlink="http://www.w3.org/1999/xlink" x="0px" y="0px"
	 viewBox="0 0 1080 1080" style="enable-background:new 0 0 1080 1080;" xml:space="preserve">
<style type="text/css">
	.st0{fill:url(#SVGID_1_);}
	.st1{fill:url(#SVGID_00000160871600390465982480000000981230433010215305_);}
	.st2{fill:url(#SVGID_00000115481947254664995000000000213703786339147420_);}
	.st3{fill:url(#SVGID_00000036239700639454969590000000187315855233111936_);}
	.st4{fill:url(#SVGID_00000044158497904521025100000008817647748212409234_);}
	.st5{clip-path:url(#SVGID_00000056404804004902288320000004002875467092911513_);fill:#FBB040;}
	.st6{clip-path:url(#SVGID_00000056404804004902288320000004002875467092911513_);fill:#005296;}
	.st7{clip-path:url(#SVGID_00000056404804004902288320000004002875467092911513_);fill:#642A95;}
	.st8{clip-path:url(#SVGID_00000056404804004902288320000004002875467092911513_);fill:#1B062D;}
	.st9{clip-path:url(#SVGID_00000056404804004902288320000004002875467092911513_);fill:#00A79D;}
	.st10{clip-path:url(#SVGID_00000056404804004902288320000004002875467092911513_);fill:#DA1C5C;}
</style>
<linearGradient id="SVGID_1_" gradientUnits="userSpaceOnUse" x1="-8.7203" y1="540.7046" x2="906.8638" y2="540.7046">
	<stop  offset="9.062913e-02" style="stop-color:#F0B357"/>
	<stop  offset="0.2431" style="stop-color:#EFAF57"/>
	<stop  offset="0.4066" style="stop-color:#EBA258"/>
	<stop  offset="0.5752" style="stop-color:#E48C59"/>
	<stop  offset="0.7474" style="stop-color:#DA6E5A"/>
	<stop  offset="0.9206" style="stop-color:#CE485C"/>
	<stop  offset="1" style="stop-color:#C8345D"/>
</linearGradient>
<path class="st0" d="M419.3,832l-86.3,86.3c-8.8-4-18.5-6.3-28.8-6.3c-38.1,0-69,30.9-69,69c0,38.1,30.9,69,69,69
	c38.1,0,69-30.9,69-69c0-10.3-2.3-20-6.3-28.8l100.4-100.4V672.7h-48V832z M371.2,734.7v-33v-61.1h-48v61.1v7.6L109,854.8
	c-11.3-8.1-25.1-12.8-40-12.8c-38.1,0-69,30.9-69,69c0,38.1,30.9,69,69,69c38.1,0,69-30.9,69-69c0-5.7-0.7-11.2-2-16.5L371.2,734.7z
	 M640,359.4c0-55.2-44.8-100-100-100c-55.2,0-100,44.8-100,100c0,38,21.2,71,52.3,87.9l-28.6,143.2h152.5l-28.6-143.2
	C618.8,430.4,640,397.4,640,359.4z M179.7,748.7l69.2-47H200c-83.4,0-151.2-67.8-151.2-151.2c0-33.5,10.7-65.3,31-91.8
	c19.7-25.7,47.6-44.8,78.5-53.6l21.7-6.2l-4.9-22.1c-2.1-9.6-3.2-19.5-3.2-29.3c0-74.3,60.5-134.8,134.8-134.8
	c24.5,0,48.5,6.6,69.4,19.2l28.3,17l7.5-32.2c10.8-46.8,37.6-89.3,75.3-119.6c38.8-31.2,85.7-47.7,135.6-47.7
	c57.8,0,112.1,22.5,153,63.4c40.9,40.9,63.4,95.2,63.4,153c0,6.4-0.3,13-0.9,19.7l-2,22.7l22.6,3.2c46.3,6.6,88.9,29.7,119.9,65.1
	c31.3,35.7,48.5,81.6,48.5,129.1c0,108.2-88,196.2-196.2,196.2h-0.4l60,40.7c42.4-10.6,81.3-32.5,113.1-64.2
	c46.1-46.1,71.5-107.4,71.5-172.6c0-59.2-21.4-116.3-60.4-160.7c-33.7-38.5-78.4-65.3-127.6-76.9c0-0.7,0-1.4,0-2.1
	c0-70.6-27.5-137-77.4-187c-49.9-49.9-116.3-77.4-187-77.4c-30.7,0-60.7,5.2-89.3,15.5c-27.7,9.9-53.3,24.3-76.3,42.8
	c-38.2,30.8-67.2,71.8-83.5,117.6c-21.2-8.3-43.8-12.6-66.8-12.6c-100.8,0-182.8,82-182.8,182.8c0,6.2,0.3,12.3,0.9,18.5
	c-32.6,13.4-61.6,35.4-83.2,63.6c-26.8,35-40.9,76.8-40.9,121C0.7,653.5,79.3,738.5,179.7,748.7z M1010.4,841.9
	c-14.9,0-28.7,4.8-40,12.8L756.2,709.3v-68.7h-48v61.1h0v33l22.1,15h0l213.1,144.7c-1.3,5.3-2,10.8-2,16.5c0,38.1,30.9,69,69,69
	s69-30.9,69-69C1079.4,872.8,1048.5,841.9,1010.4,841.9z M564,946.3V701.6h-48v244.7c-26.3,9.7-45,35-45,64.7c0,38.1,30.9,69,69,69
	s69-30.9,69-69C609,981.4,590.3,956.1,564,946.3z M775.2,912c-10.3,0-20,2.3-28.8,6.3L660.1,832V672.7h-48v179.1l100.4,100.4
	c-4,8.8-6.3,18.5-6.3,28.8c0,38.1,30.9,69,69,69c38.1,0,69-30.9,69-69C844.2,942.9,813.3,912,775.2,912z"/>
</svg>
