<?xml version="1.0" encoding="utf-8"?>
<!-- Generator: Adobe Illustrator 26.3.1, SVG Export Plug-In . SVG Version: 6.00 Build 0)  -->
<svg version="1.1" id="Layer_1" xmlns="http://www.w3.org/2000/svg" xmlns:xlink="http://www.w3.org/1999/xlink" x="0px" y="0px"
	 viewBox="0 0 1080 1080" style="enable-background:new 0 0 1080 1080;" xml:space="preserve">
<style type="text/css">
	.st0{fill:#00A79D;}
	.st1{fill:#005296;}
	.st2{clip-path:url(#SVGID_00000178897526593334976590000003696434831381227424_);fill:#FBB040;}
	.st3{clip-path:url(#SVGID_00000178897526593334976590000003696434831381227424_);fill:#005296;}
	.st4{clip-path:url(#SVGID_00000178897526593334976590000003696434831381227424_);fill:#642A95;}
	.st5{clip-path:url(#SVGID_00000178897526593334976590000003696434831381227424_);fill:#1B062D;}
	.st6{clip-path:url(#SVGID_00000178897526593334976590000003696434831381227424_);fill:#00A79D;}
	.st7{clip-path:url(#SVGID_00000178897526593334976590000003696434831381227424_);fill:#DA1C5C;}
</style>
<path class="st0" d="M179.7,748.7l69.2-47H200c-83.4,0-151.2-67.8-151.2-151.2c0-33.5,10.7-65.3,31-91.8
	c19.7-25.7,47.6-44.8,78.5-53.6l21.7-6.2l-4.9-22.1c-2.1-9.6-3.2-19.5-3.2-29.3c0-74.3,60.5-134.8,134.8-134.8
	c24.5,0,48.5,6.6,69.4,19.2l28.3,17l7.5-32.2c10.8-46.8,37.6-89.3,75.3-119.6c38.8-31.2,85.7-47.7,135.6-47.7
	c57.8,0,112.1,22.5,153,63.4c40.9,40.9,63.4,95.2,63.4,153c0,6.4-0.3,13-0.9,19.7l-2,22.7l22.6,3.2c46.3,6.6,88.9,29.7,119.9,65.1
	c31.3,35.7,48.5,81.6,48.5,129.1c0,108.2-88,196.2-196.2,196.2h-0.4l60,40.7c42.4-10.6,81.3-32.5,113.1-64.2
	c46.1-46.1,71.5-107.4,71.5-172.6c0-59.2-21.4-116.3-60.4-160.7c-33.7-38.5-78.4-65.3-127.6-76.9c0-0.7,0-1.4,0-2.1
	c0-70.6-27.5-137-77.4-187c-49.9-49.9-116.3-77.4-187-77.4c-30.7,0-60.7,5.2-89.3,15.5c-27.7,9.9-53.3,24.3-76.3,42.8
	c-38.2,30.8-67.2,71.8-83.5,117.6c-21.2-8.3-43.8-12.6-66.8-12.6c-100.8,0-182.8,82-182.8,182.8c0,6.2,0.3,12.3,0.9,18.5
	c-32.6,13.4-61.6,35.4-83.2,63.6c-26.8,35-40.9,76.8-40.9,121C0.7,653.5,79.3,738.5,179.7,748.7z"/>
<path class="st0" d="M640,359.4c0-55.2-44.8-100-100-100c-55.2,0-100,44.8-100,100c0,38,21.2,71,52.3,87.9l-28.6,143.2h152.5
	l-28.6-143.2C618.8,430.4,640,397.4,640,359.4z"/>
<path class="st0" d="M564,946.3V701.6h-48v244.7c-26.3,9.7-45,35-45,64.7c0,38.1,30.9,69,69,69s69-30.9,69-69
	C609,981.4,590.3,956.1,564,946.3z"/>
<path class="st0" d="M775.2,912c-10.3,0-20,2.3-28.8,6.3L660.1,832V672.7h-48v179.1l100.4,100.4c-4,8.8-6.3,18.5-6.3,28.8
	c0,38.1,30.9,69,69,69c38.1,0,69-30.9,69-69C844.2,942.9,813.3,912,775.2,912z"/>
<path class="st0" d="M371.2,734.7v-94.1h-48v68.7L109,854.8c-11.3-8.1-25.1-12.8-40-12.8c-38.1,0-69,30.9-69,69
	c0,38.1,30.9,69,69,69c38.1,0,69-30.9,69-69c0-5.7-0.7-11.2-2-16.5L371.2,734.7z"/>
<path class="st0" d="M419.3,832l-86.3,86.3c-8.8-4-18.5-6.3-28.8-6.3c-38.1,0-69,30.9-69,69c0,38.1,30.9,69,69,69
	c38.1,0,69-30.9,69-69c0-10.3-2.3-20-6.3-28.8l100.4-100.4V672.7h-48V832z"/>
<path class="st0" d="M1010.4,841.9c-14.9,0-28.7,4.8-40,12.8L756.2,709.3v-68.7h-48v61.1h0v33l22.1,15h0l213.1,144.7
	c-1.3,5.3-2,10.8-2,16.5c0,38.1,30.9,69,69,69s69-30.9,69-69C1079.4,872.8,1048.5,841.9,1010.4,841.9z"/>
</svg>
