<svg width="24" height="25" viewBox="0 0 24 25" fill="none" xmlns="http://www.w3.org/2000/svg">
<path d="M3.99333 17.1378L5.53111 16.0933H4.44444C2.59111 16.0933 1.08444 14.5867 1.08444 12.7333C1.08444 11.9889 1.32222 11.2822 1.77333 10.6933C2.21111 10.1222 2.83111 9.69778 3.51778 9.50222L4 9.36444L3.89111 8.87333C3.84444 8.66 3.82 8.44 3.82 8.22222C3.82 6.57111 5.16444 5.22666 6.81556 5.22666C7.36 5.22666 7.89333 5.37333 8.35778 5.65333L8.98667 6.03111L9.15333 5.31555C9.39333 4.27555 9.98889 3.33111 10.8267 2.65778C11.6889 1.96444 12.7311 1.59778 13.84 1.59778C15.1244 1.59778 16.3311 2.09778 17.24 3.00666C18.1489 3.91555 18.6489 5.12222 18.6489 6.40666C18.6489 6.54889 18.6422 6.69555 18.6289 6.84444L18.5844 7.34889L19.0867 7.42C20.1156 7.56666 21.0622 8.08 21.7511 8.86666C22.4467 9.66 22.8289 10.68 22.8289 11.7356C22.8289 14.14 20.8733 16.0956 18.4689 16.0956H18.46L19.7933 17C20.7356 16.7644 21.6 16.2778 22.3067 15.5733C23.3311 14.5489 23.8956 13.1867 23.8956 11.7378C23.8956 10.4222 23.42 9.15333 22.5533 8.16666C21.8044 7.31111 20.8111 6.71555 19.7178 6.45778C19.7178 6.44222 19.7178 6.42666 19.7178 6.41111C19.7178 4.84222 19.1067 3.36666 17.9978 2.25555C16.8889 1.14666 15.4133 0.535553 13.8422 0.535553C13.16 0.535553 12.4933 0.651109 11.8578 0.879997C11.2422 1.1 10.6733 1.42 10.1622 1.83111C9.31333 2.51555 8.66889 3.42666 8.30667 4.44444C7.83556 4.26 7.33333 4.16444 6.82222 4.16444C4.58222 4.16444 2.76 5.98666 2.76 8.22667C2.76 8.36444 2.76667 8.5 2.78 8.63778C2.05556 8.93555 1.41111 9.42444 0.931111 10.0511C0.335556 10.8289 0.0222222 11.7578 0.0222222 12.74C0.0155556 15.0222 1.76222 16.9111 3.99333 17.1378Z" />
<path d="M14.2222 8.48666C14.2222 7.26 13.2267 6.26444 12 6.26444C10.7733 6.26444 9.77778 7.26 9.77778 8.48666C9.77778 9.33111 10.2489 10.0644 10.94 10.44L10.3044 13.6222H13.6933L13.0578 10.44C13.7511 10.0644 14.2222 9.33111 14.2222 8.48666Z"/>
<path d="M12.5333 21.5289V16.0911H11.4667V21.5289C10.8822 21.7444 10.4667 22.3067 10.4667 22.9667C10.4667 23.8133 11.1533 24.5 12 24.5C12.8467 24.5 13.5333 23.8133 13.5333 22.9667C13.5333 22.3089 13.1178 21.7467 12.5333 21.5289Z" />
<path d="M17.2267 20.7667C16.9978 20.7667 16.7822 20.8178 16.5867 20.9067L14.6689 18.9889V15.4489H13.6022V19.4289L15.8333 21.66C15.7444 21.8556 15.6933 22.0711 15.6933 22.3C15.6933 23.1467 16.38 23.8333 17.2267 23.8333C18.0733 23.8333 18.76 23.1467 18.76 22.3C18.76 21.4533 18.0733 20.7667 17.2267 20.7667Z" />
<path d="M8.24889 16.8267V14.7356H7.18222V16.2622L2.42222 19.4956C2.17111 19.3156 1.86444 19.2111 1.53333 19.2111C0.686667 19.2111 0 19.8978 0 20.7444C0 21.5911 0.686667 22.2778 1.53333 22.2778C2.38 22.2778 3.06667 21.5911 3.06667 20.7444C3.06667 20.6178 3.05111 20.4956 3.02222 20.3778L8.24889 16.8267Z" />
<path d="M9.31778 18.9889L7.4 20.9067C7.20444 20.8178 6.98889 20.7667 6.76 20.7667C5.91333 20.7667 5.22667 21.4533 5.22667 22.3C5.22667 23.1467 5.91333 23.8333 6.76 23.8333C7.60667 23.8333 8.29333 23.1467 8.29333 22.3C8.29333 22.0711 8.24222 21.8556 8.15333 21.66L10.3844 19.4289V15.4489H9.31778V18.9889Z" />
<path d="M22.4533 19.2089C22.1222 19.2089 21.8156 19.3156 21.5644 19.4933L16.8044 16.2622V14.7356H15.7378V16.8267L20.9644 20.3756C20.9356 20.4933 20.92 20.6156 20.92 20.7422C20.92 21.5889 21.6067 22.2756 22.4533 22.2756C23.3 22.2756 23.9867 21.5889 23.9867 20.7422C23.9867 19.8956 23.3 19.2089 22.4533 19.2089Z" />
</svg>
