<?xml version="1.0" encoding="utf-8"?>
<!-- Generator: Adobe Illustrator 26.3.1, SVG Export Plug-In . SVG Version: 6.00 Build 0)  -->
<svg version="1.1" id="Layer_1" xmlns="http://www.w3.org/2000/svg" xmlns:xlink="http://www.w3.org/1999/xlink" x="0px" y="0px"
	 viewBox="0 0 1200 1200" style="enable-background:new 0 0 1200 1200;" xml:space="preserve">
<style type="text/css">
	.st0{fill-rule:evenodd;clip-rule:evenodd;fill:url(#SVGID_1_);}
	.st1{clip-path:url(#SVGID_00000080171232403068155760000015888804746453464704_);fill:#FBB040;}
	.st2{clip-path:url(#SVGID_00000080171232403068155760000015888804746453464704_);fill:#005296;}
	.st3{clip-path:url(#SVGID_00000080171232403068155760000015888804746453464704_);fill:#642A95;}
	.st4{clip-path:url(#SVGID_00000080171232403068155760000015888804746453464704_);fill:#1B062D;}
	.st5{clip-path:url(#SVGID_00000080171232403068155760000015888804746453464704_);fill:#00A79D;}
	.st6{clip-path:url(#SVGID_00000080171232403068155760000015888804746453464704_);fill:#DA1C5C;}
</style>
<linearGradient id="SVGID_1_" gradientUnits="userSpaceOnUse" x1="17.649" y1="599.999" x2="1182.3649" y2="599.999">
	<stop  offset="0" style="stop-color:#005296"/>
	<stop  offset="1" style="stop-color:#00A79D"/>
</linearGradient>
<path class="st0" d="M333,998.8H184.8V850.6H70.6c-14.1,0-27.5-5.6-37.4-15.5c-9.9-9.9-15.5-23.3-15.5-37.4
	c0-14.1,5.6-27.5,15.5-37.4c9.9-9.9,23.3-15.5,37.4-15.5h114.2v-91.8H70.6c-14.1,0-27.5-5.6-37.4-15.5c-9.9-9.9-15.5-23.3-15.5-37.4
	s5.6-27.5,15.5-37.4c9.9-9.9,23.3-15.5,37.4-15.5h114.2v-91.8H70.6c-14.1,0-27.5-5.6-37.4-15.5c-9.9-9.9-15.5-23.3-15.5-37.4
	s5.6-27.5,15.5-37.4c9.9-9.9,23.3-15.5,37.4-15.5h114.2v-47.1c0-26.8,10.6-52.6,29.5-71.5c19.1-19.1,44.8-29.6,71.6-29.6H333V70.6
	c0-14.1,5.5-27.5,15.5-37.4c9.9-9.9,23.3-15.5,37.4-15.5c13.9,0,27.5,5.6,37.4,15.5c9.9,9.9,15.5,23.3,15.5,37.4v130.6h108.2V70.6
	c0-14.1,5.6-27.5,15.5-37.4c9.9-9.9,23.3-15.5,37.4-15.5s27.5,5.6,37.4,15.5c9.9,9.9,15.5,23.3,15.5,37.4v130.6h108.2V70.6
	c0-14.1,5.6-27.5,15.5-37.4c9.9-9.9,23.5-15.5,37.4-15.5c14.1,0,27.5,5.6,37.4,15.5c10.1,9.9,15.5,23.3,15.5,37.4v130.6h47.1
	c26.8,0,52.6,10.6,71.6,29.6c18.9,18.9,29.5,44.6,29.5,71.5v47.1h114.2c14.1,0,27.5,5.6,37.4,15.5c9.9,9.9,15.5,23.3,15.5,37.4
	s-5.6,27.5-15.5,37.4c-9.9,9.9-23.3,15.5-37.4,15.5h-114.2v91.8h114.2c14.1,0,27.5,5.6,37.4,15.5c9.9,9.9,15.5,23.3,15.5,37.4
	s-5.6,27.5-15.5,37.4c-9.9,9.9-23.3,15.5-37.4,15.5h-114.2v91.8h114.2c14.1,0,27.5,5.6,37.4,15.5c9.9,9.9,15.5,23.3,15.5,37.4
	s-5.6,27.5-15.5,37.4c-9.9,9.9-23.3,15.5-37.4,15.5h-114.2v148.2H867v130.6c0,14.1-5.5,27.5-15.5,37.4c-9.9,9.9-23.3,15.5-37.4,15.5
	c-13.9,0-27.5-5.6-37.4-15.5c-9.9-9.9-15.5-23.3-15.5-37.4V998.8H653v130.6c0,14.1-5.6,27.5-15.5,37.4c-9.9,9.9-23.3,15.5-37.4,15.5
	s-27.5-5.6-37.4-15.5c-9.9-9.9-15.5-23.3-15.5-37.4V998.8H438.9v130.6c0,14.1-5.6,27.5-15.5,37.4c-9.9,9.9-23.5,15.5-37.4,15.5
	c-14.1,0-27.5-5.6-37.4-15.5c-10.1-9.9-15.5-23.3-15.5-37.4L333,998.8z M290.6,307h618.7v585.9H290.6V307z"/>
</svg>
