<svg width="24" height="25" viewBox="0 0 24 25" fill="none" xmlns="http://www.w3.org/2000/svg">
<path fill-rule="evenodd" clip-rule="evenodd" d="M6.49809 20.7181H3.44368V17.6637H1.0909C0.79992 17.6637 0.523595 17.5473 0.319948 17.3437C0.116304 17.14 0 16.8637 0 16.5728C0 16.2819 0.11631 16.0055 0.319948 15.8018C0.523591 15.5982 0.79992 15.4819 1.0909 15.4819H3.44368V13.591H1.0909C0.79992 13.591 0.523595 13.4746 0.319948 13.2709C0.116304 13.0674 0 12.7909 0 12.5C0 12.2091 0.11631 11.9327 0.319948 11.7292C0.523591 11.5255 0.79992 11.4091 1.0909 11.4091H3.44368V9.5182H1.0909C0.79992 9.5182 0.523595 9.40188 0.319948 9.19824C0.116304 8.9946 0 8.71818 0 8.42729C0 8.13639 0.11631 7.86006 0.319948 7.65641C0.523591 7.45277 0.79992 7.33638 1.0909 7.33638H3.44368V6.36548C3.44368 5.81275 3.66181 5.28189 4.05091 4.89279C4.44364 4.50005 4.97455 4.28186 5.52728 4.28186H6.49817V1.59091C6.49817 1.29993 6.61086 1.0236 6.8182 0.819951C7.02176 0.616305 7.29817 0.5 7.58906 0.5C7.87633 0.5 8.15628 0.616311 8.35993 0.819951C8.56357 1.0236 8.67996 1.29993 8.67996 1.59091V4.28186H10.9091V1.59091C10.9091 1.29993 11.0255 1.0236 11.2291 0.819951C11.4327 0.616305 11.7091 0.5 12 0.5C12.2909 0.5 12.5673 0.616311 12.7709 0.819951C12.9745 1.0236 13.0909 1.29993 13.0909 1.59091V4.28186H15.32V1.59091C15.32 1.29993 15.4364 1.0236 15.6401 0.819951C15.8437 0.616305 16.1237 0.5 16.4109 0.5C16.7018 0.5 16.9782 0.616311 17.1818 0.819951C17.3891 1.0236 17.5018 1.29993 17.5018 1.59091V4.28186H18.4727C19.0255 4.28186 19.5564 4.50008 19.9491 4.89279C20.3382 5.28189 20.5563 5.81275 20.5563 6.36548V7.33638H22.9091C23.2001 7.33638 23.4764 7.45277 23.6801 7.65641C23.8837 7.86006 24 8.13639 24 8.42729C24 8.71818 23.8837 8.99459 23.6801 9.19824C23.4764 9.40189 23.2001 9.5182 22.9091 9.5182H20.5563V11.4091H22.9091C23.2001 11.4091 23.4764 11.5255 23.6801 11.7292C23.8837 11.9327 24 12.2091 24 12.5C24 12.7909 23.8837 13.0673 23.6801 13.2709C23.4764 13.4746 23.2001 13.591 22.9091 13.591H20.5563V15.4819H22.9091C23.2001 15.4819 23.4764 15.5982 23.6801 15.8018C23.8837 16.0055 24 16.2819 24 16.5728C24 16.8637 23.8837 17.14 23.6801 17.3437C23.4764 17.5473 23.2001 17.6637 22.9091 17.6637H20.5563V20.7181H17.5019V23.4091C17.5019 23.7001 17.3892 23.9764 17.1819 24.18C16.9783 24.3837 16.7019 24.5 16.411 24.5C16.1238 24.5 15.8438 24.3837 15.6402 24.18C15.4365 23.9764 15.3201 23.7001 15.3201 23.4091V20.7181H13.091V23.4091C13.091 23.7001 12.9746 23.9764 12.771 24.18C12.5674 24.3837 12.291 24.5 12.0001 24.5C11.7092 24.5 11.4328 24.3837 11.2292 24.18C11.0256 23.9764 10.9092 23.7001 10.9092 23.4091V20.7181H8.68004V23.4091C8.68004 23.7001 8.56365 23.9764 8.36001 24.18C8.15637 24.3837 7.87641 24.5 7.58915 24.5C7.29825 24.5 7.02185 24.3837 6.81828 24.18C6.61094 23.9764 6.49825 23.7001 6.49825 23.4091L6.49809 20.7181ZM5.62539 6.46347H18.3742V18.5362H5.62539V6.46347Z" fill="#00A79D"/>
</svg>
