<?xml version="1.0" encoding="UTF-8"?>
<svg version="1.1" viewBox="0 0 1200 1200" xmlns="http://www.w3.org/2000/svg">
 <path d="m333 998.82h-148.23v-148.23h-114.18c-14.121 0-27.531-5.6484-37.414-15.531-9.8828-9.8828-15.527-23.293-15.527-37.41 0-14.117 5.6445-27.531 15.527-37.414 9.8828-9.8828 23.293-15.527 37.414-15.527h114.18v-91.766h-114.18c-14.121 0-27.531-5.6484-37.414-15.531-9.8828-9.8789-15.527-23.293-15.527-37.41s5.6445-27.531 15.527-37.41c9.8828-9.8828 23.293-15.531 37.414-15.531h114.18v-91.766h-114.18c-14.121 0-27.531-5.6445-37.414-15.527-9.8828-9.8828-15.527-23.297-15.527-37.414 0-14.117 5.6445-27.527 15.527-37.41 9.8828-9.8828 23.293-15.531 37.414-15.531h114.18v-47.117c0-26.824 10.586-52.586 29.469-71.469 19.059-19.059 44.824-29.648 71.648-29.648h47.117v-130.59c0-14.121 5.4688-27.531 15.531-37.414 9.8789-9.8828 23.293-15.527 37.41-15.527 13.941 0 27.527 5.6445 37.41 15.527 9.8828 9.8828 15.531 23.293 15.531 37.414v130.59h108.18v-130.59c0-14.121 5.6484-27.531 15.531-37.414 9.8789-9.8828 23.293-15.527 37.41-15.527s27.531 5.6445 37.41 15.527c9.8828 9.8828 15.531 23.293 15.531 37.414v130.59h108.18v-130.59c0-14.121 5.6484-27.531 15.531-37.414 9.8828-9.8828 23.469-15.527 37.41-15.527 14.117 0 27.531 5.6445 37.41 15.527 10.062 9.8828 15.531 23.293 15.531 37.414v130.59h47.117c26.824 0 52.59 10.59 71.648 29.648 18.883 18.883 29.469 44.645 29.469 71.469v47.117h114.18c14.121 0 27.531 5.6484 37.414 15.531 9.8828 9.8828 15.527 23.293 15.527 37.41 0 14.117-5.6445 27.531-15.527 37.414-9.8828 9.8828-23.293 15.527-37.414 15.527h-114.18v91.766h114.18c14.121 0 27.531 5.6484 37.414 15.531 9.8828 9.8789 15.527 23.293 15.527 37.41s-5.6445 27.531-15.527 37.41c-9.8828 9.8828-23.293 15.531-37.414 15.531h-114.18v91.766h114.18c14.121 0 27.531 5.6445 37.414 15.527 9.8828 9.8828 15.527 23.297 15.527 37.414 0 14.117-5.6445 27.527-15.527 37.41-9.8828 9.8828-23.293 15.531-37.414 15.531h-114.18v148.23h-148.23v130.59c0 14.121-5.4688 27.531-15.531 37.414-9.8789 9.8828-23.293 15.527-37.41 15.527-13.941 0-27.527-5.6445-37.41-15.527-9.8828-9.8828-15.531-23.293-15.531-37.414v-130.59h-108.18v130.59c0 14.121-5.6484 27.531-15.531 37.414-9.8789 9.8828-23.293 15.527-37.41 15.527s-27.531-5.6445-37.41-15.527c-9.8828-9.8828-15.531-23.293-15.531-37.414v-130.59h-108.18v130.59c0 14.121-5.6484 27.531-15.531 37.414-9.8828 9.8828-23.469 15.527-37.41 15.527-14.117 0-27.531-5.6445-37.41-15.527-10.062-9.8828-15.531-23.293-15.531-37.414zm-42.352-691.77h618.7v585.88h-618.7z" fill="#00a69c" fill-rule="evenodd"/>
</svg>
