<?xml version="1.0" encoding="UTF-8"?>
<svg width="128pt" height="128pt" version="1.1" viewBox="0 0 128 128" xmlns="http://www.w3.org/2000/svg">
 <g fill="#00a69c">
  <path d="m64 27.078h56.617c1.3555 0 2.4609-1.1055 2.4609-2.4609 0-1.3594-1.1016-2.4609-2.4609-2.4609l-56.617-0.003906c-1.3594 0-2.4609 1.1016-2.4609 2.4609s1.1016 2.4648 2.4609 2.4648z"/>
  <path d="m64 46.77h37.074c1.3594 0 2.4609-1.1016 2.4609-2.4609s-1.1016-2.4609-2.4609-2.4609h-37.074c-1.3594 0-2.4609 1.1016-2.4609 2.4609s1.1016 2.4609 2.4609 2.4609z"/>
  <path d="m27.078 115.69c12.215 0 22.152-9.9414 22.152-22.152 0-12.215-9.9414-22.152-22.152-22.152-12.215-0.003907-22.156 9.9375-22.156 22.152 0 12.215 9.9414 22.152 22.156 22.152zm0-39.383c9.5 0 17.23 7.7266 17.23 17.23 0 9.5-7.7305 17.23-17.23 17.23-9.5039 0-17.23-7.7305-17.23-17.23 0-9.5039 7.7266-17.23 17.23-17.23z"/>
  <path d="m27.078 56.617c12.215 0 22.152-9.9414 22.152-22.156 0-12.215-9.9375-22.152-22.152-22.152s-22.156 9.9375-22.156 22.152c0 12.215 9.9414 22.156 22.156 22.156zm0-39.387c9.5 0 17.23 7.7305 17.23 17.23s-7.7305 17.23-17.23 17.23c-9.5039 0-17.23-7.7266-17.23-17.23 0-9.5 7.7266-17.23 17.23-17.23z"/>
  <path d="m120.62 81.23h-56.617c-1.3594 0-2.4609 1.1016-2.4609 2.4609s1.1016 2.4609 2.4609 2.4609h56.617c1.3594 0 2.4609-1.1016 2.4609-2.4609s-1.1055-2.4609-2.4609-2.4609z"/>
  <path d="m101.07 105.85c1.3594 0 2.4609-1.1016 2.4609-2.4609s-1.1016-2.4609-2.4609-2.4609l-37.074-0.003906c-1.3594 0-2.4609 1.1016-2.4609 2.4609 0 1.3594 1.1016 2.4609 2.4609 2.4609z"/>
 </g>
</svg>
