<svg width="20" height="20" viewBox="0 0 20 20" fill="none" xmlns="http://www.w3.org/2000/svg">
<path d="M10 20C4.48606 20 0 15.5139 0 10C0 4.48606 4.48606 0 10 0C15.5139 0 20 4.48606 20 10C20 15.5139 15.5139 20 10 20ZM10 1.71425C5.39988 1.71425 1.68635 5.42867 1.68635 10C1.68635 14.5713 5.40077 18.3137 10 18.3137C14.6001 18.3137 18.3137 14.5992 18.3137 10C18.2858 5.42867 14.5713 1.71425 10 1.71425Z"/>
<path d="M9.74288 12.7709C9.28599 12.7709 8.8858 12.3995 8.8858 11.9139C8.8858 10.5999 9.74288 9.45677 10.9714 9.08535C11.5146 8.91358 11.8861 8.42793 11.8573 7.85683C11.8573 6.82797 11.0002 5.97089 9.97135 5.97089C8.94249 5.97089 8.08541 6.82797 8.08541 7.85683C8.08541 8.31372 7.71397 8.71391 7.22833 8.71391C6.77145 8.71391 6.37126 8.34247 6.37126 7.85683C6.4288 5.88545 8.02876 4.28548 10.0002 4.28548C11.9716 4.28548 13.5715 5.88545 13.5715 7.85683C13.5715 9.1708 12.7145 10.3139 11.4859 10.6853C10.9427 10.8571 10.5713 11.3428 10.6 11.9139C10.6 12.3716 10.1997 12.7709 9.74288 12.7709Z"/>
<path d="M10.7717 14.5429C10.7717 15.9144 8.71394 15.9144 8.71394 14.5429C8.71394 13.1714 10.7717 13.1714 10.7717 14.5429Z"/>
</svg>
