<?xml version="1.0" encoding="utf-8"?>
<!-- Generator: Adobe Illustrator 26.3.1, SVG Export Plug-In . SVG Version: 6.00 Build 0)  -->
<svg version="1.1" id="Layer_1" xmlns="http://www.w3.org/2000/svg" xmlns:xlink="http://www.w3.org/1999/xlink" x="0px" y="0px"
	 viewBox="0 0 1080 1080" style="enable-background:new 0 0 1080 1080;" xml:space="preserve">
<style type="text/css">
	.st0{fill:url(#SVGID_1_);}
	.st1{fill:url(#SVGID_00000047031079008824964450000009369236302295291538_);}
	.st2{fill:url(#SVGID_00000058579859939107292240000013790216024068544134_);}
	.st3{fill:url(#SVGID_00000097491242589139513250000002630171247718119593_);}
	.st4{fill:url(#SVGID_00000116951819153312750950000001319860256891777696_);}
	.st5{clip-path:url(#SVGID_00000063596125624593880830000010996957917376509864_);fill:#FBB040;}
	.st6{clip-path:url(#SVGID_00000063596125624593880830000010996957917376509864_);fill:#005296;}
	.st7{clip-path:url(#SVGID_00000063596125624593880830000010996957917376509864_);fill:#642A95;}
	.st8{clip-path:url(#SVGID_00000063596125624593880830000010996957917376509864_);fill:#1B062D;}
	.st9{clip-path:url(#SVGID_00000063596125624593880830000010996957917376509864_);fill:#00A79D;}
	.st10{clip-path:url(#SVGID_00000063596125624593880830000010996957917376509864_);fill:#DA1C5C;}
</style>
<linearGradient id="SVGID_1_" gradientUnits="userSpaceOnUse" x1="-8.442" y1="540.1023" x2="1061.8834" y2="540.1023">
	<stop  offset="8.986442e-02" style="stop-color:#11A5D8"/>
	<stop  offset="0.2227" style="stop-color:#11A1D5"/>
	<stop  offset="0.3653" style="stop-color:#1294CE"/>
	<stop  offset="0.5122" style="stop-color:#127EC1"/>
	<stop  offset="0.6623" style="stop-color:#1360B0"/>
	<stop  offset="0.8148" style="stop-color:#143A99"/>
	<stop  offset="0.9673" style="stop-color:#160B7D"/>
	<stop  offset="1" style="stop-color:#160077"/>
</linearGradient>
<path class="st0" d="M215.4,598.2h48c0.1-42.9,8.3-84.5,23.7-123.2H236C222.4,514.5,215.5,555.8,215.4,598.2z M221.3,670.2
	c0,13.3,10.7,24,24,24h225c13.3,0,24-10.7,24-24s-10.7-24-24-24h-225C232.1,646.2,221.3,656.9,221.3,670.2z M111.2,766.2
	c0,13.3,10.7,24,24,24h353c13.3,0,24-10.7,24-24s-10.7-24-24-24h-353C122,742.2,111.2,753,111.2,766.2z M134,330.7H249
	c13.3,0,24-10.7,24-24s-10.7-24-24-24H134c-13.3,0-24,10.7-24,24S120.8,330.7,134,330.7z M135,474.9c-10.8,40.3-16.2,82-16.2,124.4
	c0,32.3,3.2,64.1,9.4,95.2c2.3-0.2,4.7-0.4,7.1-0.4h41.9c-6.9-30.9-10.4-62.6-10.4-94.9c0-42.6,6.1-84.3,18.1-124.4H135z
	 M24.2,426.9h403.1c13.3,0,24-10.7,24-24s-10.7-24-24-24H24.2c-13.3,0-24,10.7-24,24S10.9,426.9,24.2,426.9z M378.2,862.3
	c0-13.3-10.7-24-24-24h-330c-13.3,0-24,10.7-24,24s10.7,24,24,24h330C367.4,886.3,378.2,875.6,378.2,862.3z M889.4,599.4
	c0-10.9-8.9-19.8-19.8-19.8c-10.9,0-19.8,8.9-19.8,19.8c0,10.9,8.9,19.8,19.8,19.8C880.5,619.2,889.4,610.3,889.4,599.4z
	 M599.4,983.4c51.8,0,102.1-10.2,149.5-30.2c45.7-19.3,86.8-47,122.1-82.3c35.3-35.3,62.9-76.3,82.3-122.1
	c20-47.4,30.2-97.6,30.2-149.5s-10.2-102.1-30.2-149.5c-19.3-45.7-47-86.8-82.3-122.1c-35.3-35.3-76.3-62.9-122.1-82.3
	c-47.4-20-97.6-30.2-149.5-30.2s-102.1,10.2-149.5,30.2c-45.7,19.3-86.8,47-122.1,82.3c-1,1-2,2.1-3,3.1h72.4
	c58-43.8,128.2-67.6,202.2-67.6c89.7,0,174.1,35,237.6,98.4c63.5,63.5,98.4,147.8,98.4,237.6c0,89.7-35,174.1-98.4,237.6
	s-147.8,98.4-237.6,98.4c-63.5,0-124.3-17.5-176.9-50.2c-5.3,15.8-15.9,29.2-29.8,38c18.1,11.6,37.2,21.6,57.2,30.1
	C497.3,973.2,547.5,983.4,599.4,983.4z M1042.2,412.3c-24.2-57.2-58.9-108.6-103-152.8c-8.7-8.7-17.7-17.1-27-25l23.9-36
	c6.1-9.2,3.6-21.6-5.6-27.7l-58.3-38.7c-9.2-6.1-21.6-3.6-27.7,5.6l-23.3,35.1c-11.3-5.9-22.9-11.3-34.7-16.3
	c-51.9-22-106.7-34.4-163.1-37.2v-18.1h90c11,0,20-9,20-20v-61c0-11-9-20-20-20h-228c-11,0-20,9-20,20v61c0,11,9,20,20,20h90v18.1
	c-56.4,2.8-111.2,15.2-163.1,37.2c-11.8,5-23.4,10.4-34.7,16.3l-23.3-35.1c-6.1-9.2-18.5-11.7-27.7-5.6l-58.3,38.7
	c-9.2,6.1-11.7,18.5-5.6,27.7c0,0,23.7,36.1,23.6,36.2h80.2c20.4-13.1,42-24.4,64.5-34c53.3-22.6,110-34,168.4-34
	s115.1,11.4,168.4,34c51.5,21.8,97.8,53,137.5,92.7s70.9,86,92.7,137.5c22.6,53.3,34,110,34,168.4s-11.4,115.1-34,168.4
	c-21.8,51.5-53,97.8-92.7,137.5s-86,70.9-137.5,92.7c-53.3,22.6-110,34-168.4,34s-115.1-11.4-168.4-34
	c-38.2-16.2-73.5-37.5-105.5-63.7h-70.8c1.6,1.6,3.2,3.3,4.8,4.9c44.1,44.1,95.5,78.8,152.8,103c59.3,25.1,122.2,37.8,187.1,37.8
	s127.8-12.7,187.1-37.8c57.2-24.2,108.6-58.9,152.8-103c44.1-44.1,78.8-95.5,103-152.8c25.1-59.3,37.8-122.2,37.8-187.1
	S1067.3,471.6,1042.2,412.3z M776.5,776.5c-7.7,7.7-7.7,20.2,0,28c7.7,7.7,20.2,7.7,28,0c7.7-7.7,7.7-20.2,0-28
	C796.7,768.7,784.2,768.7,776.5,776.5z M619.2,329.2c0-10.9-8.9-19.8-19.8-19.8s-19.8,8.9-19.8,19.8c0,10.9,8.9,19.8,19.8,19.8
	S619.2,340.1,619.2,329.2z M504.6,599.4c0,52.3,42.5,94.8,94.8,94.8s94.8-42.5,94.8-94.8c0-18.7-5.5-36.2-14.9-50.9l135.3-145.9
	c10-11.7-5.3-26.9-16.9-17c-0.9,0.9-83.9,76.7-146.8,134.3c-14.8-9.6-32.5-15.2-51.4-15.2C547.1,504.6,504.6,547.1,504.6,599.4z
	 M599.4,552.6c4.7,0,9.2,0.7,13.4,2c-18.9,17.3-31.5,28.8-31.8,29.2c-9,9.7-8.4,24.9,1.3,33.9c9.7,9,24.9,8.4,33.9-1.3l28-30.2
	c1.2,4.2,1.9,8.6,1.9,13.2c0,25.8-21,46.8-46.8,46.8s-46.8-21-46.8-46.8S573.6,552.6,599.4,552.6z M579.6,869.6
	c0,10.9,8.9,19.8,19.8,19.8s19.8-8.9,19.8-19.8c0-10.9-8.9-19.8-19.8-19.8S579.6,858.7,579.6,869.6z"/>
</svg>
