<?xml version="1.0" encoding="UTF-8"?>
<svg width="1200pt" height="1200pt" version="1.1" viewBox="0 0 1200 1200" xmlns="http://www.w3.org/2000/svg">
 <path d="m744 624c32.605-29.164 55.59-67.539 65.906-110.05s7.4844-87.152-8.125-128.02c-15.609-40.867-43.258-76.027-79.289-100.84s-78.746-38.09-122.49-38.09-86.461 13.281-122.49 38.09-63.68 59.969-79.289 100.84c-15.609 40.867-18.441 85.508-8.125 128.02s33.301 80.887 65.906 110.05c-60.32 21.121-112.6 60.449-149.61 112.55-37.016 52.102-56.941 114.41-57.027 178.32 0 13.207 7.0469 25.406 18.48 32.008 11.438 6.6055 25.523 6.6055 36.961 0 11.434-6.6016 18.48-18.801 18.48-32.008 0.0625-62.23 24.812-121.89 68.816-165.9 44.004-44.004 103.67-68.754 165.9-68.816h84.961c62.23 0.0625 121.89 24.812 165.9 68.816 44.004 44.008 68.754 103.67 68.816 165.9 0 13.207 7.043 25.406 18.48 32.008 11.434 6.6055 25.523 6.6055 36.961 0 11.434-6.6016 18.48-18.801 18.48-32.008-0.15625-64.027-20.223-126.43-57.422-178.54-37.195-52.117-89.68-91.375-150.18-112.34zm-144-301.2c37.492 0 73.445 14.891 99.957 41.402 26.508 26.512 41.402 62.465 41.402 99.957 0 37.492-14.895 73.445-41.402 99.957-26.512 26.508-62.465 41.402-99.957 41.402s-73.445-14.895-99.957-41.402c-26.508-26.512-41.402-62.465-41.402-99.957 0-37.492 14.895-73.445 41.402-99.957 26.512-26.512 62.465-41.402 99.957-41.402z" fill="#00a69c"/>
</svg>
