<?xml version="1.0" encoding="UTF-8"?>
<svg width="128pt" height="128pt" version="1.1" viewBox="0 0 128 128" xmlns="http://www.w3.org/2000/svg">
 <path d="m102.61 91.16v-54.195c0-8.9609-20.02-13.07-38.605-13.07s-38.605 4.0977-38.605 13.07v54.566c0 0.34375 0.070313 0.68359 0.20703 1 2.0977 7.9375 20.875 11.52 38.398 11.52 18.305 0 37.977-3.9688 38.578-12.66 0.011719-0.074219 0.023437-0.15234 0.027344-0.23047zm-5.1211-36.121c0 2.8047-12.711 7.9492-33.484 7.9492s-33.484-5.1211-33.484-7.9492v-11.121c7.1289 4.1719 20.684 6.1172 33.484 6.1172s26.355-1.9453 33.484-6.1172zm-66.969 6.8984c7.1289 4.1758 20.684 6.1211 33.484 6.1211s26.355-1.9453 33.484-6.1172v11.02c0 2.8047-12.711 7.9492-33.484 7.9492s-33.484-5.1211-33.484-7.9492zm33.484-32.934c20.773 0 33.484 5.1211 33.484 7.9492s-12.711 7.9609-33.484 7.9609-33.484-5.1211-33.484-7.9492 12.711-7.9609 33.484-7.9609zm0 69.977c-20.773 0-33.484-5.1211-33.484-7.9492v-11.059c7.1289 4.1602 20.684 6.1211 33.484 6.1211s26.355-1.9453 33.484-6.1172v11.07c0 2.7891-12.711 7.9492-33.484 7.9492z" fill="#00a69c"/>
</svg>
