<?xml version="1.0" encoding="UTF-8"?>
<svg width="512pt" height="512pt" version="1.1" viewBox="0 0 512 512" xmlns="http://www.w3.org/2000/svg">
 <g fill="#00a69c">
  <path d="m334.28 62.441h-318.28c-3.3125 0-6 2.6875-6 6v384.56c0 3.3125 2.6875 6 6 6h318.28c3.3125 0 6-2.6875 6-6v-384.56c0-3.3125-2.6875-6-6-6zm-312.28 12h94.094v372.56h-94.094zm106.09 0h94.094v372.56h-94.094zm200.19 372.56h-94.094v-372.56h94.094z"/>
  <path d="m459.01 58.328c-0.375-3.2891-3.3438-5.6602-6.6367-5.293l-105.43 11.852c-1.582 0.17578-3.0273 0.97656-4.0195 2.2188-0.99219 1.2461-1.4531 2.832-1.2734 4.4141l42.957 382.15c0.17578 1.5781 0.97656 3.0273 2.2188 4.0195 1.2422 0.99219 2.832 1.4492 4.4141 1.2734l105.43-11.852c1.5781-0.17578 3.0273-0.97656 4.0195-2.2188 0.99219-1.2461 1.4492-2.832 1.2695-4.4141zm-63.145 388.04-41.617-370.23 93.5-10.508 41.617 370.23z"/>
  <path d="m69.047 115.48c-8.625 0-16.898 3.4258-22.996 9.5273-6.0977 6.0977-9.5234 14.371-9.5234 22.996s3.4258 16.898 9.5234 22.996c6.1016 6.0977 14.371 9.5234 23 9.5234 8.625 0 16.895-3.4258 22.996-9.5234 6.0977-6.1016 9.5234-14.371 9.5234-22.996-0.011718-8.625-3.4414-16.891-9.5391-22.988-6.0938-6.0938-14.363-9.5234-22.984-9.5352zm0 53.043c-5.4414 0-10.664-2.1602-14.512-6.0117-3.8477-3.8477-6.0078-9.0664-6.0078-14.512 0-5.4414 2.1602-10.66 6.0078-14.508 3.8516-3.8516 9.0703-6.0117 14.512-6.0117 5.4453 0 10.664 2.1602 14.512 6.0117 3.8477 3.8477 6.0117 9.0664 6.0117 14.512-0.007812 5.4375-2.1719 10.656-6.0195 14.504-3.8477 3.8477-9.0625 6.0117-14.504 6.0156z"/>
  <path d="m175.14 115.48c-8.625 0-16.898 3.4258-22.996 9.5273-6.1016 6.0977-9.5273 14.371-9.5273 22.996 0.003906 8.625 3.4297 16.898 9.5273 22.996 6.1016 6.0977 14.371 9.5234 22.996 9.5234s16.898-3.4258 22.996-9.5234c6.1016-6.1016 9.5273-14.371 9.5273-22.996-0.011718-8.625-3.4414-16.891-9.5391-22.988-6.0977-6.0938-14.363-9.5234-22.984-9.5352zm0 53.043c-5.4414 0-10.664-2.1602-14.512-6.0117-3.8477-3.8477-6.0117-9.0664-6.0117-14.512 0.003906-5.4414 2.1641-10.66 6.0117-14.508 3.8516-3.8516 9.0703-6.0117 14.512-6.0117 5.4453 0 10.664 2.1602 14.512 6.0117 3.8477 3.8477 6.0117 9.0664 6.0117 14.512-0.007812 5.4375-2.1719 10.656-6.0195 14.504-3.8477 3.8477-9.0625 6.0117-14.504 6.0156z"/>
  <path d="m281.23 180.53c8.625 0 16.895-3.4258 22.996-9.5273 6.0977-6.0977 9.5234-14.371 9.5234-22.996s-3.4258-16.895-9.5273-22.996c-6.0977-6.0977-14.371-9.5234-22.996-9.5234s-16.895 3.4258-22.996 9.5234c-6.0977 6.1016-9.5234 14.371-9.5234 23 0.007812 8.6211 3.4375 16.887 9.5352 22.984 6.0977 6.0977 14.363 9.5273 22.988 9.5352zm0-53.043c5.4414 0 10.66 2.1641 14.508 6.0117 3.8516 3.8477 6.0117 9.0703 6.0117 14.512 0 5.4414-2.1641 10.664-6.0117 14.512-3.8477 3.8477-9.0703 6.0078-14.512 6.0078-5.4414 0-10.66-2.1602-14.512-6.0117-3.8477-3.8477-6.0078-9.0664-6.0078-14.508 0.003906-5.4414 2.1719-10.66 6.0156-14.504 3.8477-3.8477 9.0664-6.0117 14.508-6.0195z"/>
  <path d="m408.55 115.48c-8.6289 0-16.898 3.4297-22.996 9.5273-6.1016 6.0977-9.5273 14.371-9.5273 22.996 0.003906 8.625 3.4297 16.898 9.5273 22.996 6.1016 6.0977 14.371 9.5273 22.996 9.5234 8.625 0 16.898-3.4258 22.996-9.5234 6.1016-6.1016 9.5273-14.371 9.5273-22.996-0.011718-8.625-3.4414-16.891-9.5391-22.988-6.0977-6.0977-14.363-9.5234-22.984-9.5352zm0 53.043c-5.4453 0-10.664-2.1641-14.512-6.0117s-6.0117-9.0664-6.0117-14.512c0-5.4414 2.1641-10.66 6.0117-14.512 3.8516-3.8477 9.0703-6.0078 14.512-6.0078 5.4453 0 10.664 2.1602 14.512 6.0117 3.8477 3.8477 6.0117 9.0664 6.0117 14.512-0.007812 5.4375-2.1719 10.656-6.0195 14.504-3.8477 3.8477-9.0664 6.0117-14.504 6.0156z"/>
  <path d="m85.41 261.4c-3.3125 0-6 2.6875-6 6v102.4c0 3.3125 2.6875 6 6 6s6-2.6875 6-6v-102.4c0-3.3125-2.6875-6-6-6z"/>
  <path d="m52.684 261.4c-3.3125 0-6 2.6875-6 6v102.4c0 3.3125 2.6875 6 6 6s6-2.6875 6-6v-102.4c0-3.3125-2.6875-6-6-6z"/>
  <path d="m191.5 261.4c-3.3125 0-6 2.6875-6 6v102.4c0 3.3125 2.6875 6 6 6s6-2.6875 6-6v-102.4c0-3.3125-2.6875-6-6-6z"/>
  <path d="m158.78 261.4c-3.3164 0-6 2.6875-6 6v102.4c0 3.3125 2.6836 6 6 6 3.3125 0 6-2.6875 6-6v-102.4c0-3.3125-2.6875-6-6-6z"/>
  <path d="m297.6 261.4c-3.3164 0-6 2.6875-6 6v102.4c0 3.3125 2.6836 6 6 6 3.3125 0 6-2.6875 6-6v-102.4c0-3.3125-2.6875-6-6-6z"/>
  <path d="m264.87 261.4c-3.3164 0-6 2.6875-6 6v102.4c0 3.3125 2.6836 6 6 6 3.3125 0 6-2.6875 6-6v-102.4c0-3.3125-2.6875-6-6-6z"/>
  <path d="m440.12 260.07c-3.2969 0.32422-5.707 3.2617-5.3828 6.5586l10.047 101.91c0.30078 3.0703 2.8789 5.4102 5.9609 5.4141 0.20312 0 0.40234-0.011719 0.60156-0.03125 3.2969-0.32422 5.707-3.2617 5.3828-6.5586l-10.051-101.91c-0.15234-1.5859-0.92969-3.043-2.1602-4.0547-1.2305-1.0078-2.8125-1.4883-4.3984-1.3242z"/>
  <path d="m414.11 268.66c-0.33203-3.2891-3.2656-5.6914-6.5586-5.3672-3.2891 0.32422-5.6992 3.2539-5.3828 6.5469l10.047 101.91c0.30078 3.0664 2.8789 5.4062 5.9648 5.4102 0.19922 0 0.39844-0.007812 0.59766-0.027344 3.2969-0.32422 5.707-3.2617 5.3828-6.5586z"/>
 </g>
</svg>
