<svg width="24" height="24" viewBox="0 0 24 24" fill="none" xmlns="http://www.w3.org/2000/svg">
<path d="M2.17226 20.5368L1.19873 19.9805L12.232 0.880798L13.2056 1.4371L2.17226 20.5368Z"/>
<path d="M0.966797 18.4507H23.0334V19.6096H0.966797V18.4507Z"/>
<path d="M12.4171 25.4972L1.38379 19.0997L1.98645 18.1262L13.0198 24.4773L12.4171 25.4972ZM22.0133 8.85449L10.98 2.50337L11.5363 1.52985L22.5696 7.88096L22.0133 8.85449Z"/>
<path d="M1.98648 8.85449L1.43018 7.88096L12.4635 1.52985L13.0198 2.50337L1.98648 8.85449Z"/>
<path d="M21.8282 20.5368L10.7948 1.4371L11.7684 0.880798L22.8017 19.9805L21.8282 20.5368ZM1.84766 7.13919H3.00662V19.8878H1.84766V7.13919ZM20.9937 7.13919H22.1527V19.8878H20.9937V7.13919Z"/>
<path d="M12.2316 24.9872L11.7217 24.1064L21.3179 18.5434L21.8278 19.4242L12.2316 24.9872Z"/>
<path d="M23.6823 20.2123C23.0333 21.3713 21.5498 21.7421 20.3909 21.0931C19.2319 20.4441 18.8611 18.9606 19.5101 17.8017C20.1591 16.6427 21.6426 16.2718 22.8015 16.9208C23.9605 17.6162 24.3314 19.0997 23.6823 20.2123ZM4.48993 9.13262C3.84091 10.2916 2.35744 10.6625 1.19847 10.0134C0.0395115 9.36441 -0.331356 7.88094 0.317663 6.72198C0.966681 5.56302 2.45015 5.19215 3.60911 5.84117C4.76808 6.53655 5.13894 8.02002 4.48993 9.13262ZM0.317663 20.2123C-0.331356 19.0533 0.0395115 17.6162 1.19847 16.9208C2.35744 16.2718 3.79455 16.6427 4.48993 17.8017C5.13894 18.9606 4.76808 20.3977 3.60911 21.0931C2.45015 21.7885 0.966681 21.3713 0.317663 20.2123ZM19.5101 9.13262C18.8611 7.97366 19.2319 6.53655 20.3909 5.84117C21.5498 5.19215 22.987 5.56302 23.6823 6.72198C24.3314 7.88094 23.9605 9.31806 22.8015 10.0134C21.6426 10.7088 20.1591 10.2916 19.5101 9.13262ZM12 26.9806C10.6556 26.9806 9.58936 25.9144 9.58936 24.57C9.58936 23.2256 10.6556 22.1594 12 22.1594C13.3444 22.1594 14.4106 23.2256 14.4106 24.57C14.4106 25.9144 13.3444 26.9806 12 26.9806ZM12 4.82128C10.6556 4.82128 9.58936 3.75504 9.58936 2.41064C9.58936 1.06624 10.6556 0 12 0C13.3444 0 14.4106 1.06624 14.4106 2.41064C14.4106 3.75504 13.3444 4.82128 12 4.82128Z"/>
</svg>
