<?xml version="1.0" encoding="utf-8"?>
<!-- Generator: Adobe Illustrator 26.3.1, SVG Export Plug-In . SVG Version: 6.00 Build 0)  -->
<svg version="1.1" id="Layer_1" xmlns="http://www.w3.org/2000/svg" xmlns:xlink="http://www.w3.org/1999/xlink" x="0px" y="0px"
	 viewBox="0 0 1080 1080" style="enable-background:new 0 0 1080 1080;" xml:space="preserve">
<style type="text/css">
	.st0{fill:url(#SVGID_1_);}
	.st1{fill:url(#SVGID_00000163066805972143667890000018287046816624157371_);}
	.st2{fill:url(#SVGID_00000031176898537443859800000005932017642548424377_);}
	.st3{fill:url(#SVGID_00000114049154797803487650000005714233070829679498_);}
	.st4{fill:url(#SVGID_00000105424611944709025190000003213301226348038041_);}
	.st5{clip-path:url(#SVGID_00000075124902682289731540000010258842812644551577_);fill:#FBB040;}
	.st6{clip-path:url(#SVGID_00000075124902682289731540000010258842812644551577_);fill:#005296;}
	.st7{clip-path:url(#SVGID_00000075124902682289731540000010258842812644551577_);fill:#642A95;}
	.st8{clip-path:url(#SVGID_00000075124902682289731540000010258842812644551577_);fill:#1B062D;}
	.st9{clip-path:url(#SVGID_00000075124902682289731540000010258842812644551577_);fill:#00A79D;}
	.st10{clip-path:url(#SVGID_00000075124902682289731540000010258842812644551577_);fill:#DA1C5C;}
</style>
<linearGradient id="SVGID_1_" gradientUnits="userSpaceOnUse" x1="3.662109e-04" y1="540.0003" x2="1002.9058" y2="540.0003">
	<stop  offset="9.062913e-02" style="stop-color:#4AA59D"/>
	<stop  offset="0.2804" style="stop-color:#48A19C"/>
	<stop  offset="0.4837" style="stop-color:#42949B"/>
	<stop  offset="0.6935" style="stop-color:#377E97"/>
	<stop  offset="0.9063" style="stop-color:#296193"/>
	<stop  offset="1" style="stop-color:#215191"/>
</linearGradient>
<path class="st0" d="M581.7,476.2l148.4-242.9l-234.2-0.1l-115,382h117.3L386.4,939.7L727,476.2H581.7z M402.9,744.4
	c-13.1-8.8-25.5-19-36.9-30.4C319.6,667.5,294,605.7,294,540s25.6-127.5,72.1-173.9c15.6-15.6,33-28.9,51.7-39.6l18.6-61.7
	c-38.7,14.5-74.1,37.3-104.2,67.4C276.6,387.6,246,461.5,246,540s30.6,152.4,86.1,207.9c16.7,16.7,35.1,31.1,54.7,43.2L402.9,744.4z
	 M1050.2,613.7l-55.1-34c2.9-33.1,2.1-66.4-2.4-99.5l53.6-36.5l28.9-19.7l-9.6-33.6c-13.8-48.3-34.1-94.4-60.4-137.2l-18.3-29.8
	l-34.1,8l-63.1,14.9c-21.5-25.7-45.5-48.7-71.9-68.9l12.1-63.6l6.5-34.4l-30.6-17C781,48.6,759.5,38.3,738.1,30
	c-21.4-8.3-44.3-15.3-71.9-21.8L632.1,0l-18.4,29.8l-34,55c-33.1-2.9-66.4-2.1-99.5,2.4l-36.5-53.6L424,4.7l-33.6,9.6
	C342,28.1,295.9,48.4,253.1,74.7l-29.8,18.3l8,34.1l14.9,63.1c-25.7,21.5-48.7,45.5-68.9,71.9L113.8,250l-34.4-6.5l-17,30.6
	C48.6,299,38.3,320.5,30,341.9c-8.3,21.4-15.3,44.2-21.8,71.9L0,447.9l29.8,18.4l55,34c-2.9,33.1-2.1,66.4,2.4,99.5l-53.6,36.5
	L4.7,656l9.6,33.6c13.8,48.3,34.1,94.4,60.4,137.2l18.3,29.8l34.1-8l63.1-14.9c21.5,25.7,45.5,48.7,71.9,68.9L250,966.2l-6.5,34.4
	l30.6,17c24.9,13.8,46.4,24.1,67.8,32.4c21.4,8.3,44.2,15.3,71.9,21.8l34.1,8.1l18.4-29.8l34-55c33.1,2.9,66.4,2.1,99.5-2.4
	l36.5,53.6l19.7,28.9l33.6-9.6c48.3-13.8,94.4-34.1,137.2-60.4l29.8-18.3l-8-34.1l-14.9-63.1c25.7-21.5,48.7-45.5,68.9-71.9
	l63.6,12.1l34.4,6.5l17-30.6c13.8-24.9,24.1-46.4,32.4-67.8c8.3-21.4,15.3-44.2,21.8-71.9l8.1-34.1L1050.2,613.7z M1004.9,720.5
	c-8.4,21.7-18.6,42.1-29.6,61.8l-94.1-17.8c-27.6,42-62.3,77.6-101.7,106.1l22,93.4c-39,24-81.1,42.5-125.1,55.1l-54-79.3
	c-47.7,9.9-97.4,11.4-147,3.4l-50.3,81.5c-22-5.2-43.9-11.5-65.6-19.9c-21.7-8.4-42.1-18.6-61.8-29.6l17.8-94.1
	c-42-27.6-77.6-62.3-106.1-101.7l-93.4,22c-24-39-42.5-81.1-55.1-125.1l79.3-54c-9.9-47.7-11.4-97.4-3.4-147l-81.5-50.3
	c5.2-22,11.5-43.9,19.9-65.6c8.4-21.7,18.6-42.1,29.6-61.8l94.1,17.8c27.6-42,62.3-77.6,101.7-106.1l-22-93.4
	c39-24,81.1-42.5,125.1-55.1l54,79.3c47.7-9.9,97.4-11.4,147-3.4l50.3-81.5c22,5.2,43.9,11.5,65.6,19.9
	c21.7,8.4,42.1,18.6,61.8,29.6l-17.8,94.1c42,27.6,77.6,62.3,106.1,101.7l93.4-22c24,39,42.5,81.1,55.1,125.1l-79.3,54
	c9.9,47.7,11.4,97.4,3.4,147l81.5,50.3C1019.5,676.9,1013.3,698.9,1004.9,720.5z M734,319.1l-25.5,41.7c1.8,1.7,3.7,3.5,5.5,5.3
	C760.4,412.5,786,474.3,786,540s-25.6,127.5-72.1,173.9c-41.8,41.8-96.1,66.7-154.5,71.3L524,833.6c5.3,0.3,10.7,0.4,16,0.4
	c78.5,0,152.4-30.6,207.9-86.1S834,618.5,834,540s-30.6-152.4-86.1-207.9C743.4,327.6,738.7,323.3,734,319.1z"/>
</svg>
